<mxfile host="app.diagrams.net" modified="2024-04-04T17:10:04.807Z" agent="Mozilla/5.0 (Macintosh; Intel Mac OS X 10_15_7) AppleWebKit/537.36 (KHTML, like Gecko) Chrome/123.0.0.0 Safari/537.36" version="24.2.2" etag="synrHBFWFhRWBe5jwSEK" type="github">
  <diagram name="Page-1" id="rnLgCARZp1dzkWTYmbhe">
    <mxGraphModel>
      <root>
        <mxCell id="0" />
        <mxCell id="1" parent="0" />
      </root>
    </mxGraphModel>
  </diagram>
</mxfile>
